# AST/ASF file generated using VICON BodyLanguage
# -----------------------------------------------
:version 1.10
:name VICON
:units
  mass 1.0
  length 0.45
  angle deg
:documentation
   .ast/.asf automatically generated from VICON data using
   VICON BodyBuilder and BodyLanguage model FoxedUp or BRILLIANT.MOD
:root
   order TX TY TZ RX RY RZ
   axis XYZ
   position 0 0 0  
   orientation 0 0 0 
:bonedata
  begin
     id 1 
     name lhipjoint
     direction 0.677091 -0.635792 0.370561 
     length 2.74323 
     axis 0 0 0  XYZ
  end
  begin
     id 2 
     name lfemur
     direction 0.34202 -0.939693 0  
     length 7.44995  
     axis 0 0 20  XYZ
    dof rx ry rz
    limits (-160.0 20.0)
           (-70.0 70.0)
           (-60.0 70.0)
  end
  begin
     id 3 
     name ltibia
     direction 0.34202 -0.939693 0   
     length 7.34467   
     axis 0 0 20   XYZ
    dof rx
    limits (-10.0 170.0)
  end
  begin
     id 4 
     name lfoot
     direction 0.101953 -0.280114 0.954537   
     length 1.72105   
     axis -90 7.62852e-016 20   XYZ
    dof rx rz
    limits (-45.0 90.0)
           (-70.0 20.0)
  end
  begin
     id 5 
     name ltoes
     direction 1.53537e-011 -4.21915e-011 1   
     length 0.865872   
     axis -90 7.62852e-016 20   XYZ
    dof rx
    limits (-90.0 20.0)
  end
  begin
     id 6 
     name rhipjoint
     direction -0.695735 -0.620586 0.361699   
     length 2.81045  
     axis 0 0 0  XYZ 
  end
  begin
     id 7 
     name rfemur
     direction -0.34202 -0.939693 0   
     length 7.29387   
     axis 0 0 -20   XYZ
    dof rx ry rz
    limits (-160.0 20.0)
           (-70.0 70.0)
           (-70.0 60.0)
  end
  begin
     id 8 
     name rtibia
     direction -0.34202 -0.939693 0   
     length 7.44935   
     axis 0 0 -20   XYZ
    dof rx
    limits (-10.0 170.0)
 end
 begin
     id 9 
     name rfoot
     direction -0.104163 -0.286184 0.952496   
     length 1.77731  
     axis -90 -7.62852e-016 -20   XYZ
    dof rx rz
    limits (-45.0 90.0)
           (-20.0 70.0)
  end
  begin
     id 10 
     name rtoes
     direction -1.5355e-011 -4.21888e-011 1   
     length 0.892424   
     axis -90 -7.62852e-016 -20   XYZ
    dof rx
    limits (-90.0 20.0)
  end
  begin
     id 11 
     name lowerback
     direction 0.0100202 0.997226 -0.0737589   
     length 2.16892   
     axis 0 0 0   XYZ
    dof rx ry rz
    limits (-20.0 45.0)
           (-30.0 30.0)
           (-30.0 30.0)
  end
  begin
     id 12 
     name upperback
     direction 0.00432398 0.999988 -0.00215019   
     length 2.17326   
     axis 0 0 0   XYZ
    dof rx ry rz
    limits (-20.0 45.0)
           (-30.0 30.0)
           (-30.0 30.0)
  end
  begin
     id 13 
     name thorax
     direction -0.00195047 0.999485 0.0320434   
     length 2.18139   
     axis 0 0 0   XYZ
    dof rx ry rz
    limits (-20.0 45.0)
           (-30.0 30.0)
           (-30.0 30.0)
  end
  begin
     id 14 
     name lowerneck
     direction 0.00782762 0.986241 0.165128   
     length 1.88415   
     axis 0 0 0   XYZ
    dof rx ry rz
    limits (-20.0 45.0)
           (-30.0 30.0)
           (-30.0 30.0)
  end
  begin
     id 15 
     name upperneck
     direction 0.00988667 0.981098 -0.193258   
     length 1.9242   
     axis 0 0 0   XYZ
    dof rx ry rz
    limits (-20.0 45.0)
           (-30.0 30.0)
           (-30.0 30.0)
  end
  begin
     id 16
     name head
     direction 0.00252199 0.996513 -0.0833958  
     length 1.93887  
     axis 0 0 0   XYZ
    dof rx ry rz
    limits (-20.0 45.0)
           (-30.0 30.0)
           (-30.0 30.0)
  end
  begin
     id 17 
     name lclavicle
     direction 0.929492 0.368193 -0.0218667  
     length 3.5955  
     axis 0 0 0   XYZ
    dof ry rz
    limits (-20.0 10.0)
           (0.0 20.0)
  end
  begin
     id 18 
     name lhumerus
     direction 1 -4.48972e-011 1.41911e-027   
     length 5.2795   
     axis 180 -30 -90   XYZ
    dof rx ry rz
    limits (-60.0 90.0)
           (-90.0 90.0)
           (-90.0 90.0)
  end
  begin
     id 19
     name lradius
     direction 1 -4.48963e-011 7.05772e-027   
     length 3.53504   
     axis 180 -30 -90   XYZ
    dof rx
    limits (-10.0 170.0)
  end
  begin
     id 20
     name lwrist
     direction 1 -4.48957e-011 9.54866e-027   
     length 1.76752   
     axis -7.69462e-015 90 90   XYZ
    dof ry
    limits (-180.0 0.0)
 end
  begin
     id 21 
     name lhand
     direction 1 -4.48979e-011 1.90973e-026   
     length 0.667948   
     axis -1.21857e-014 90 90   XYZ
    dof rx rz
    limits (-90.0 90.0)
           (-45.0 45.0)
  end
  begin
     id 22 
     name lfingers
     direction 1 -4.48987e-011 3.81946e-026   
     length 0.538517   
     axis -2.43714e-014 90 90   XYZ
    dof rx
    limits (0.0 90.0)
  end
  begin
     id 23
     name lthumb
     direction 0.707107 -6.34962e-011 0.707107   
     length 0.773206   
     axis -90 45 2.85299e-015   XYZ
    dof rx rz
    limits (-45.0 45.0)
           (-45.0 45.0)
  end
  begin
     id 24 
     name rclavicle
     direction -0.898763 0.414256 -0.143584   
     length 3.5176  
     axis 0 0 0   XYZ 
    dof ry rz
    limits (-10.0 20.0)
           (-20.0 0.0)
  end
  begin
     id 25 
     name rhumerus
     direction -1 -4.48971e-011 1.129e-027  
     length 5.25035   
     axis 180 30 90   XYZ
    dof rx ry rz
    limits (-90.0 60.0)
           (-90.0 90.0)
           (-90.0 90.0)
  end
  begin
     id 26 
     name rradius
     direction -1 -4.48955e-011 6.34664e-027   
     length 3.58884   
     axis 180 30 90   XYZ
    dof rx
    limits (-10.0 170.0)
  end
  begin
     id 27 
     name rwrist
     direction -1 -4.48966e-011 9.54866e-027   
     length 1.79442   
     axis -7.69462e-015 -90 -90   XYZ
    dof ry
    limits (-180.0 0.0)
  end
  begin
     id 28
     name rhand
     direction -1 -4.48973e-011 1.90973e-026   
     length 0.779235   
     axis -1.21857e-014 -90 -90   XYZ
    dof rx rz
    limits (-90.0 90.0)
           (-45.0 45.0)
  end
  begin
     id 29
     name rfingers
     direction -1 -4.48984e-011 3.81946e-026   
     length 0.62824   
     axis -2.43714e-014 -90 -90   XYZ
    dof rx
    limits (0.0 90.0)
  end
  begin
     id 30
     name rthumb
     direction -0.707107 -6.34968e-011 0.707107   
     length 0.90203   
     axis -90 -45 -2.85299e-015   XYZ
    dof rx rz
    limits (-45.0 45.0)
           (-45.0 45.0)
  end
:hierarchy
  begin
    root lhipjoint rhipjoint lowerback
    lhipjoint lfemur
    lfemur ltibia
    ltibia lfoot
    lfoot ltoes
    rhipjoint rfemur
    rfemur rtibia
    rtibia rfoot
    rfoot rtoes
    lowerback upperback
    upperback thorax
    thorax lowerneck lclavicle rclavicle
    lowerneck upperneck
    upperneck head
    lclavicle lhumerus
    lhumerus lradius
    lradius lwrist
    lwrist lhand lthumb
    lhand lfingers
    rclavicle rhumerus
    rhumerus rradius
    rradius rwrist
    rwrist rhand rthumb
    rhand rfingers
  end

#!OML:ASF I:\Random Stuff\random\construction\7_22_03\Session 2\subj1.ASF
:FULLY-SPECIFIED
:DEGREES
356
root -16.2391 17.5517 -3.34358 -171.605 -30.4346 183.19
lowerback 8.20652 -1.02602 2.44559
upperback 0.510328 -1.13673 3.19686
thorax -4.05585 -0.636523 2.0789
lowerneck -20.8594 6.01501 4.1196
upperneck 40.5706 3.57553 2.14445
head 19.1147 1.4662 0.783463
rclavicle 1.25234e-014 -4.92986e-014
rhumerus -16.0272 42.6515 -89.7814
rradius 63.4439
rwrist -27.4621
rhand -31.931 16.5442
rfingers 7.12502
rthumb -5.18209 -13.3724
lclavicle 1.25234e-014 -4.92986e-014
lhumerus -8.47458 -26.4248 82.4911
lradius 58.2511
lwrist 38.5805
lhand -29.9049 52.0649
lfingers 7.12502
lthumb -3.22565 -637.98
rfemur -4.55322 9.85467 21.004
rtibia 10.7379
rfoot -15.1233 2.50241
rtoes -14.7086
lfemur -36.5827 -20.6844 6.84981
ltibia 20.571
lfoot 10.6515 -2.07456
ltoes -23.8868
357
root -16.4881 17.5089 -3.39058 -171.617 -28.2855 183.591
lowerback 8.19969 -0.811128 2.44972
upperback 0.718372 -0.866909 2.97811
thorax -3.84333 -0.503381 1.81334
lowerneck -20.7982 6.2597 4.30151
upperneck 40.4178 3.90704 2.08595
head 19.0172 1.61508 0.791359
rclavicle 1.07344e-014 9.93923e-015
rhumerus -14.9681 43.1916 -89.7326
rradius 62.2669
rwrist -28.0501
rhand -31.2974 17.0255
rfingers 7.12502
rthumb -4.57028 -12.9052
lclavicle 1.07344e-014 9.93923e-015
lhumerus -8.00709 -25.9623 81.8553
lradius 57.2906
lwrist 38.4103
lhand -29.987 51.5921
lfingers 7.12502
lthumb -3.30486 -638.454
rfemur -4.44548 10.9496 20.4805
rtibia 10.7486
rfoot -15.8649 3.22071
rtoes -15.0551
lfemur -35.656 -19.5016 6.52694
ltibia 21.3415
lfoot 8.22279 -1.35754
ltoes -28.0836
358
root -16.7481 17.4562 -3.43485 -171.614 -26.13 183.94
lowerback 8.23813 -0.60292 2.36322
upperback 0.94626 -0.613936 2.77411
thorax -3.63234 -0.377444 1.61814
lowerneck -20.7565 6.46715 4.5896
upperneck 40.235 4.20545 1.8769
head 18.9196 1.74763 0.701976
rclavicle 3.67752e-015 -3.26007e-014
rhumerus -13.7631 43.8069 -89.5886
rradius 61.0307
rwrist -28.4095
rhand -30.7973 17.2062
rfingers 7.12502
rthumb -4.08741 -12.7343
lclavicle 3.67752e-015 -3.26007e-014
lhumerus -7.47413 -25.109 81.2221
lradius 56.3415
lwrist 36.7961
lhand -28.3068 52.2361
lfingers 7.12502
lthumb -1.68227 -637.791
rfemur -4.39121 12.0737 19.8638
rtibia 10.8509
rfoot -16.5538 3.85206
rtoes -15.8966
lfemur -34.4582 -17.1097 5.27112
ltibia 22.3992
lfoot 5.78524 -2.27223
ltoes -31.3729
359
root -17.0157 17.4061 -3.47764 -171.545 -23.9464 184.193
lowerback 8.35143 -0.385317 2.1164
upperback 1.14126 -0.357359 2.58172
thorax -3.49549 -0.247587 1.52726
lowerneck -20.7283 6.62516 4.7708
upperneck 40.0381 4.40448 1.81384
head 18.8076 1.84585 0.679354
rclavicle -3.12092e-014 3.22031e-014
rhumerus -12.3996 44.3514 -89.3341
rradius 59.7294
rwrist -27.9975
rhand -30.3135 16.5925
rfingers 7.12502
rthumb -3.62022 -13.3565
lclavicle -3.12092e-014 3.22031e-014
lhumerus -7.20024 -24.2236 80.9174
lradius 55.6082
lwrist 35.9811
lhand -28.0436 52.137
lfingers 7.12502
lthumb -1.42806 -637.888
rfemur -4.48524 13.2601 19.098
rtibia 11.1579
rfoot -17.2014 4.40063
rtoes -16.959
lfemur -33.1997 -14.1837 3.54458
ltibia 23.5231
lfoot 3.17934 -4.1786
ltoes -37.2331
360
root -17.2892 17.3715 -3.51745 -171.341 -21.7828 184.25
lowerback 8.5145 -0.151874 1.71991
upperback 1.28541 -0.0878375 2.33155
thorax -3.43972 -0.108569 1.46026
lowerneck -20.7535 6.72626 4.85064
upperneck 39.9067 4.47448 1.89455
head 18.7386 1.89446 0.716029
rclavicle 7.55382e-015 1.5704e-014
rhumerus -11.2586 44.8011 -89.1324
rradius 58.7012
rwrist -27.872
rhand -30.2125 15.8854
rfingers 7.12502
rthumb -3.52264 -14.0653
lclavicle 7.55382e-015 1.5704e-014
lhumerus -6.97213 -23.794 80.6838
lradius 54.8947
lwrist 35.964
lhand -28.2572 51.8829
lfingers 7.12502
lthumb -1.63437 -638.144
rfemur -4.83852 14.4023 18.0701
rtibia 11.7362
rfoot -17.876 4.96017
rtoes -17.7002
lfemur -32.1338 -12.1894 2.04447
ltibia 24.5652
lfoot 0.329527 -3.76715
ltoes -41.4994
361
root -17.5604 17.3509 -3.55017 -171.039 -19.7566 184.077
lowerback 8.78993 0.0987672 1.15378
upperback 1.41066 0.190411 1.99978
thorax -3.4678 0.0368335 1.40321
lowerneck -20.757 6.75256 4.91865
upperneck 39.7262 4.4387 1.98453
head 18.6325 1.90412 0.734724
rclavicle -1.16041e-014 -1.2921e-015
rhumerus -10.1627 44.556 -88.9658
rradius 57.5493
rwrist -28.0565
rhand -29.4992 15.9516
rfingers 7.12502
rthumb -2.83377 -14.0093
lclavicle -1.16041e-014 -1.2921e-015
lhumerus -6.68864 -23.3751 80.571
lradius 54.2331
lwrist 35.8016
lhand -28.3416 51.9741
lfingers 7.12502
lthumb -1.71585 -638.053
rfemur -5.36887 15.4384 16.7927
rtibia 12.4442
rfoot -18.4603 5.40055
rtoes -18.5099
lfemur -31.3008 -11.0281 0.657474
ltibia 25.4352
lfoot -1.94162 -3.35104
ltoes -42.2184
362
root -17.8232 17.3345 -3.57589 -170.53 -17.8254 183.522
lowerback 9.08661 0.351184 0.146234
upperback 1.51667 0.424707 1.57772
thorax -3.53139 0.166097 1.50483
lowerneck -20.79 6.72559 4.93579
upperneck 39.5169 4.33125 2.11211
head 18.5131 1.8856 0.764885
rclavicle 9.30064e-014 -1.75862e-014
rhumerus -8.98112 43.9538 -88.9019
rradius 56.1866
rwrist -28.356
rhand -28.7946 15.9701
rfingers 7.12502
rthumb -2.15336 -13.9987
lclavicle 9.30064e-014 -1.75862e-014
lhumerus -6.38 -22.8313 80.5228
lradius 53.6765
lwrist 35.3668
lhand -28.3738 52.2429
lfingers 7.12502
lthumb -1.74698 -637.785
rfemur -6.14187 16.2113 15.0749
rtibia 13.262
rfoot -18.8771 5.74448
rtoes -19.5349
lfemur -30.706 -10.0429 -1.04552
ltibia 26.1344
lfoot -4.05093 -3.08596
ltoes -41.9397
363
root -18.0755 17.3314 -3.59414 -169.806 -16.0568 182.843
lowerback 9.36041 0.554804 -1.09388
upperback 1.53858 0.564541 1.16013
thorax -3.67285 0.252045 1.75245
lowerneck -20.7857 6.66975 4.99234
upperneck 39.1557 4.28617 2.05434
head 18.3044 1.88034 0.712634
rclavicle 3.36195e-014 -4.96962e-016
rhumerus -7.9329 43.5003 -88.9403
rradius 54.9386
rwrist -28.5197
rhand -28.7895 16.741
rfingers 7.12502
rthumb -2.14839 -13.2279
lclavicle 3.36195e-014 -4.96962e-016
lhumerus -6.09983 -22.2379 80.4606
lradius 53.2308
lwrist 34.7381
lhand -28.3851 52.5316
lfingers 7.12502
lthumb -1.7578 -637.496
rfemur -7.22175 16.572 13.1906
rtibia 14.0954
rfoot -19.0699 6.06586
rtoes -20.4193
lfemur -30.4847 -8.98788 -2.86124
ltibia 26.739
lfoot -6.032 -2.43426
ltoes -42.9963
364
root -18.3136 17.3442 -3.6004 -168.997 -14.6826 182.544
lowerback 9.68533 0.658767 -2.0065
upperback 1.45063 0.599017 0.887719
thorax -3.9532 0.285044 1.97812
lowerneck -20.8516 6.57581 4.9502
upperneck 38.8239 4.20702 2.029
head 18.1268 1.85114 0.688287
rclavicle -1.83876e-014 1.55052e-014
rhumerus -7.04416 43.0084 -89.0394
rradius 53.8696
rwrist -28.0471
rhand -28.9573 17.085
rfingers 7.12502
rthumb -2.3105 -12.8822
lclavicle -1.83876e-014 1.55052e-014
lhumerus -5.78066 -21.6193 80.4568
lradius 52.786
lwrist 34.0361
lhand -28.2755 52.8874
lfingers 7.12502
lthumb -1.65201 -637.139
rfemur -8.56376 16.6456 11.7785
rtibia 14.8999
rfoot -18.9327 6.13819
rtoes -21.0744
lfemur -30.777 -7.73794 -4.28017
ltibia 27.3155
lfoot -6.97323 -2.3044
ltoes -41.7545
